<svg width="161" height="160" viewBox="0 0 161 160" fill="none" xmlns="http://www.w3.org/2000/svg">
<path d="M90.0788 10.2008L88.5012 10.0832L87.8384 7.6752L83.3429 7.3399L82.3303 9.62291L80.7387 9.50421L85.0696 0L87.2197 0.160357L90.0788 10.2008ZM85.8884 1.63342L83.9165 6.04899L87.4627 6.31348L86.1676 1.65425L85.8884 1.63342Z" fill="#67797E"/>
<path d="M94.4729 11.2859L92.3065 10.7743L92.2019 0.679967L93.7415 1.04359L93.7782 9.05038L94.0507 9.11473L97.8154 2.00573L99.6548 2.44014L99.8414 10.4823L100.114 10.5467L103.729 3.40228L105.268 3.7659L100.659 12.7468L98.4923 12.2352L98.3408 4.53212L98.0683 4.46777L94.4729 11.2859Z" fill="#67797E"/>
<path d="M111.519 16.8588L110.058 16.2516L110.185 13.7574L106.022 12.0273L104.344 13.8769L102.87 13.2644L109.966 5.60096L111.957 6.42836L111.519 16.8588ZM110.231 7.40887L106.972 10.9819L110.256 12.3465L110.489 7.51632L110.231 7.40887Z" fill="#67797E"/>
<path d="M117.64 16.2594L118.954 21.1854L117.368 20.2635L116.096 15.3778L115.503 15.0329L113.701 18.1312L112.431 17.3923L117.357 8.9204L121.145 11.1231C121.621 11.3999 121.98 11.7656 122.224 12.22C122.48 12.6712 122.597 13.1658 122.575 13.704C122.562 14.2468 122.405 14.7764 122.105 15.2928C121.809 15.8011 121.435 16.1937 120.983 16.4704C120.531 16.7472 120.051 16.8946 119.544 16.9128C119.041 16.9229 118.572 16.8013 118.136 16.5479L117.64 16.2594ZM116.185 13.859L118.667 15.3016C119.03 15.5127 119.416 15.5539 119.826 15.425C120.24 15.288 120.576 14.9977 120.834 14.5539C121.092 14.1101 121.178 13.6743 121.092 13.2465C121.006 12.8187 120.782 12.4992 120.419 12.2881L117.938 10.8454L116.185 13.859Z" fill="#67797E"/>
<path d="M120.251 22.1068L126.27 14.373L128.954 16.4625C129.654 17.007 130.158 17.6657 130.468 18.4386C130.777 19.2114 130.86 20.0157 130.719 20.8515C130.584 21.6929 130.23 22.4819 129.657 23.2185C129.084 23.955 128.406 24.4918 127.623 24.8288C126.848 25.1716 126.048 25.288 125.222 25.1781C124.397 25.0681 123.635 24.7408 122.935 24.1963L120.251 22.1068ZM123.795 23.0914C124.274 23.464 124.797 23.6881 125.365 23.7636C125.939 23.8317 126.5 23.7418 127.048 23.494C127.595 23.2461 128.078 22.8533 128.497 22.3156C128.915 21.778 129.177 21.2132 129.283 20.6214C129.389 20.0296 129.336 19.4676 129.123 18.9355C128.916 18.396 128.573 17.9399 128.094 17.5673L126.57 16.3807L122.27 21.9048L123.795 23.0914Z" fill="#67797E"/>
<path d="M132.544 33.3121L131.112 31.6085L137.052 23.4468L138.071 24.6575L133.321 31.1037L133.502 31.318L140.765 27.861L141.982 29.3074L137.331 35.8714L137.512 36.0857L144.676 32.5109L145.695 33.7216L136.636 38.1762L135.203 36.4727L139.679 30.2017L139.499 29.9874L132.544 33.3121Z" fill="#67797E"/>
<path d="M139.682 42.2799L138.88 41.048L147.092 35.7005L147.894 36.9324L139.682 42.2799Z" fill="#67797E"/>
<path d="M141.547 45.3838L140.809 44.1125L149.285 39.1923L150.023 40.4636L141.547 45.3838Z" fill="#67797E"/>
<path d="M143.142 48.6321L142.533 47.2942L151.453 43.2343L152.346 45.1966L147.029 52.0006L147.145 52.2555L154.115 49.083L154.724 50.4209L145.804 54.4808L144.911 52.5185L150.228 45.7145L150.112 45.4596L143.142 48.6321Z" fill="#67797E"/>
<path d="M147.074 57.8609L146.596 56.4706L155.865 53.2871L156.342 54.6774L147.074 57.8609Z" fill="#67797E"/>
<path d="M148.007 61.3573L147.67 59.9265L157.209 57.6782L157.703 59.7767L151.165 65.4171L151.229 65.6897L158.683 63.9328L159.02 65.3636L149.482 67.6119L148.987 65.5134L155.525 59.8729L155.461 59.6004L148.007 61.3573Z" fill="#67797E"/>
<path d="M155.271 73.8832L155.621 78.0124L150.557 78.4421L150.459 77.2843L151.717 77.037L151.711 76.9673C151.313 76.7013 150.947 76.3061 150.613 75.7819C150.288 75.2662 150.097 74.6782 150.041 74.0179C149.968 73.153 150.115 72.3444 150.482 71.592C150.849 70.8396 151.396 70.2218 152.123 69.7385C152.85 69.2553 153.697 68.9727 154.664 68.8906C155.641 68.8078 156.528 68.9432 157.326 69.297C158.124 69.6508 158.763 70.1679 159.242 70.8485C159.731 71.5283 160.012 72.3007 160.085 73.1656C160.144 73.863 160.055 74.5216 159.817 75.1413C159.589 75.7601 159.25 76.2947 158.801 76.7449C158.353 77.2045 157.839 77.5525 157.26 77.789L157.131 76.2685C157.65 75.9809 158.05 75.5629 158.331 75.0145C158.623 74.4746 158.742 73.8977 158.69 73.2839C158.64 72.6887 158.44 72.1577 158.091 71.6909C157.752 71.2232 157.291 70.8689 156.709 70.628C156.135 70.3862 155.495 70.2954 154.789 70.3554C154.082 70.4153 153.462 70.6131 152.928 70.9488C152.404 71.2837 152.009 71.7106 151.744 72.2295C151.488 72.7476 151.386 73.3043 151.436 73.8995C151.481 74.4296 151.644 74.9076 151.923 75.3335C152.212 75.7586 152.563 76.0847 152.976 76.312C153.399 76.5477 153.82 76.6572 154.24 76.6402L154.353 76.6447L154.127 73.9803L155.271 73.8832Z" fill="#67797E"/>
<path d="M145.913 104.483C146.213 103.668 146.689 102.998 147.34 102.472C147.988 101.954 148.744 101.631 149.607 101.501C150.47 101.371 151.357 101.474 152.268 101.809C153.179 102.145 153.921 102.642 154.494 103.3C155.067 103.959 155.433 104.695 155.591 105.509C155.745 106.332 155.673 107.151 155.373 107.965C155.115 108.666 154.736 109.248 154.238 109.71C153.748 110.177 153.188 110.508 152.559 110.704C151.927 110.909 151.281 110.974 150.622 110.901L151.149 109.468C151.789 109.485 152.373 109.317 152.901 108.965C153.434 108.624 153.82 108.13 154.059 107.481C154.262 106.93 154.305 106.368 154.186 105.798C154.077 105.23 153.81 104.714 153.384 104.249C152.967 103.787 152.426 103.434 151.76 103.189C151.095 102.944 150.449 102.86 149.824 102.938C149.207 103.02 148.669 103.239 148.209 103.597C147.758 103.958 147.43 104.414 147.227 104.966C146.982 105.632 146.952 106.267 147.137 106.872C147.331 107.481 147.692 107.987 148.219 108.39L147.692 109.822C147.125 109.444 146.661 108.975 146.301 108.415C145.94 107.854 145.72 107.236 145.641 106.56C145.561 105.885 145.652 105.192 145.913 104.483Z" fill="#67797E"/>
<path d="M141.666 113.719C142.083 112.958 142.653 112.366 143.375 111.942C144.093 111.527 144.888 111.319 145.761 111.319C146.634 111.319 147.496 111.553 148.347 112.02C149.198 112.487 149.858 113.088 150.327 113.825C150.796 114.561 151.048 115.344 151.083 116.172C151.113 117.009 150.92 117.807 150.502 118.568C150.085 119.329 149.515 119.921 148.793 120.345C148.071 120.768 147.273 120.98 146.4 120.98C145.527 120.98 144.665 120.747 143.814 120.28C142.963 119.813 142.303 119.211 141.834 118.475C141.365 117.738 141.116 116.952 141.085 116.115C141.054 115.278 141.248 114.48 141.666 113.719ZM142.893 114.392C142.605 114.916 142.474 115.466 142.498 116.044C142.53 116.626 142.717 117.176 143.061 117.694C143.413 118.217 143.899 118.65 144.521 118.991C145.143 119.332 145.765 119.508 146.387 119.52C147.017 119.536 147.582 119.398 148.082 119.108C148.59 118.823 148.988 118.418 149.275 117.895C149.558 117.379 149.683 116.831 149.651 116.249C149.627 115.671 149.44 115.121 149.088 114.598C148.744 114.08 148.262 113.65 147.64 113.308C147.018 112.967 146.392 112.789 145.762 112.773C145.14 112.762 144.575 112.899 144.067 113.184C143.567 113.474 143.176 113.877 142.893 114.392Z" fill="#67797E"/>
<path d="M137.669 120.513L138.558 119.342L146.363 125.269L145.059 126.986L136.547 125.532L136.378 125.755L142.477 130.386L141.588 131.557L133.783 125.63L135.087 123.913L143.599 125.367L143.768 125.144L137.669 120.513Z" fill="#67797E"/>
<path d="M129.954 129.491C130.499 128.941 131.075 128.559 131.682 128.345C132.288 128.132 132.868 128.083 133.423 128.199C133.978 128.316 134.458 128.575 134.862 128.976L133.827 130.019C133.469 129.664 133.023 129.511 132.488 129.56C131.947 129.615 131.417 129.904 130.898 130.427C130.372 130.957 130.081 131.45 130.023 131.906C129.972 132.368 130.109 132.76 130.434 133.082C130.977 133.621 131.69 133.579 132.572 132.955L134.062 131.929C135.424 130.98 136.609 131.004 137.616 132.004C138.007 132.391 138.257 132.836 138.364 133.337C138.479 133.845 138.438 134.369 138.242 134.911C138.053 135.46 137.709 135.986 137.209 136.49C136.67 137.033 136.107 137.408 135.521 137.615C134.928 137.829 134.357 137.874 133.809 137.751C133.254 137.634 132.768 137.369 132.35 136.955L133.386 135.911C133.617 136.141 133.895 136.285 134.219 136.344C134.536 136.408 134.872 136.374 135.228 136.24C135.591 136.114 135.936 135.884 136.265 135.553C136.712 135.103 136.957 134.649 137.002 134.194C137.04 133.745 136.899 133.363 136.581 133.047C136.078 132.548 135.411 132.583 134.582 133.154L133.299 134.051C132.483 134.622 131.765 134.908 131.144 134.911C130.524 134.927 129.942 134.665 129.399 134.126C129.008 133.738 128.758 133.287 128.651 132.773C128.543 132.272 128.597 131.734 128.812 131.159C129.028 130.597 129.408 130.041 129.954 129.491Z" fill="#67797E"/>
<path d="M123.041 135.556C123.639 135.093 124.277 134.811 124.955 134.711C125.633 134.611 126.297 134.699 126.947 134.975C127.59 135.256 128.157 135.714 128.649 136.348L132.249 140.997L131.087 141.898L127.487 137.249C127.172 136.843 126.804 136.543 126.383 136.35C125.96 136.17 125.533 136.105 125.101 136.157C124.661 136.214 124.26 136.383 123.899 136.663C123.537 136.943 123.277 137.286 123.119 137.691C122.954 138.103 122.909 138.533 122.985 138.981C123.067 139.438 123.265 139.869 123.579 140.274L127.179 144.923L126.017 145.823L122.417 141.174C121.925 140.54 121.624 139.876 121.512 139.183C121.401 138.491 121.478 137.829 121.745 137.197C122.012 136.566 122.444 136.019 123.041 135.556Z" fill="#67797E"/>
<path d="M113.034 142.44L118.347 139.214L123.433 147.591L122.177 148.354L117.817 141.174L113.76 143.637L113.034 142.44Z" fill="#67797E"/>
<path d="M109.606 143.929L110.935 143.301L114.525 150.895L117.31 149.579L117.908 150.845L111.023 154.099L110.424 152.834L113.196 151.523L109.606 143.929Z" fill="#67797E"/>
<path d="M104.164 146.266L105.541 145.751L108.973 154.931L107.597 155.446L104.164 146.266Z" fill="#67797E"/>
<path d="M100.696 147.3L102.116 146.921L104.644 156.389L102.561 156.945L96.7308 150.575L96.4602 150.648L98.4355 158.047L97.0152 158.426L94.4875 148.957L96.5705 148.401L102.401 154.771L102.671 154.699L100.696 147.3Z" fill="#67797E"/>
<path d="M88.382 154.92L84.2643 155.386L83.6933 150.336L84.8479 150.206L85.1302 151.456L85.1997 151.448C85.4545 151.043 85.8393 150.666 86.354 150.317C86.8604 149.978 87.4429 149.771 88.1013 149.697C88.9638 149.599 89.7763 149.723 90.5386 150.069C91.301 150.415 91.9338 150.945 92.4372 151.658C92.9405 152.371 93.2467 153.21 93.3558 154.175C93.4659 155.149 93.3553 156.039 93.0239 156.847C92.6926 157.655 92.1934 158.308 91.5265 158.806C90.8607 159.313 90.0965 159.615 89.234 159.713C88.5384 159.792 87.8776 159.721 87.2515 159.5C86.6265 159.289 86.0827 158.966 85.6201 158.53C85.1482 158.094 84.786 157.591 84.5334 157.018L86.0497 156.847C86.3517 157.357 86.7807 157.746 87.3368 158.011C87.8846 158.288 88.4646 158.391 89.0767 158.322C89.6702 158.255 90.1954 158.04 90.6524 157.679C91.1103 157.326 91.4516 156.856 91.6762 156.267C91.9018 155.687 91.9748 155.045 91.8951 154.34C91.8154 153.635 91.6003 153.021 91.2499 152.497C90.9005 151.982 90.4627 151.6 89.9366 151.349C89.4115 151.108 88.8522 151.021 88.2586 151.088C87.73 151.148 87.2567 151.323 86.8389 151.615C86.422 151.916 86.1058 152.275 85.8901 152.694C85.6663 153.123 85.5687 153.548 85.5973 153.967L85.596 154.08L88.2531 153.78L88.382 154.92Z" fill="#67797E"/>
<path d="M53.9489 145.472L55.4537 145.96L55.5271 148.457L59.8151 149.848L61.3398 147.87L62.858 148.362L56.3984 156.57L54.3476 155.904L53.9489 145.472ZM55.99 154.789L58.952 150.966L55.5695 149.869L55.7237 154.702L55.99 154.789Z" fill="#67797E"/>
<path d="M46.894 147.644L43.1681 145.831L45.3926 141.261L46.4374 141.77L46.0056 142.977L46.0686 143.007C46.5005 142.802 47.0274 142.69 47.6491 142.671C48.2584 142.656 48.8609 142.794 49.4568 143.084C50.2372 143.464 50.8565 144.004 51.3147 144.705C51.773 145.406 52.0234 146.192 52.066 147.064C52.1087 147.936 51.9175 148.808 51.4926 149.681C51.0637 150.562 50.4929 151.255 49.7802 151.759C49.0676 152.263 48.2963 152.547 47.4663 152.61C46.6322 152.681 45.8249 152.527 45.0445 152.147C44.4151 151.841 43.8952 151.427 43.4848 150.905C43.0703 150.392 42.7847 149.827 42.6279 149.211C42.4627 148.591 42.4269 147.971 42.5205 147.353L43.8926 148.021C43.8738 148.614 44.0279 149.171 44.3548 149.694C44.6693 150.221 45.1035 150.619 45.6573 150.888C46.1944 151.15 46.7527 151.25 47.3323 151.19C47.9078 151.138 48.4482 150.924 48.9534 150.547C49.4546 150.178 49.8605 149.675 50.1709 149.037C50.4814 148.4 50.6292 147.766 50.6142 147.135C50.5951 146.514 50.4305 145.956 50.1206 145.463C49.8066 144.978 49.381 144.604 48.8439 144.343C48.3656 144.11 47.8719 144.005 47.3629 144.027C46.8498 144.057 46.39 144.191 45.9834 144.43C45.5644 144.672 45.2546 144.978 45.0539 145.347L44.9923 145.442L47.3965 146.612L46.894 147.644Z" fill="#67797E"/>
<path d="M38.3418 136.716L43.6929 140.274L38.2667 148.435L32.9156 144.877L33.6676 143.746L37.7945 146.49L39.3759 144.112L35.4821 141.523L36.2185 140.415L40.1123 143.004L41.7169 140.591L37.5899 137.847L38.3418 136.716Z" fill="#67797E"/>
<path d="M35.7986 134.627L36.9064 135.593L30.4643 142.978L28.8395 141.561L30.8669 133.167L30.6559 132.983L25.6218 138.754L24.514 137.787L30.9562 130.402L32.5809 131.82L30.5536 140.213L30.7646 140.398L35.7986 134.627Z" fill="#67797E"/>
<path d="M26.7524 125.553C27.3199 126.21 27.6762 126.95 27.8213 127.775C27.9603 128.592 27.8775 129.41 27.5731 130.228C27.2686 131.046 26.7492 131.773 26.0148 132.407C25.2804 133.042 24.4863 133.451 23.6326 133.633C22.779 133.816 21.9578 133.779 21.1691 133.523C20.3744 133.26 19.6932 132.8 19.1257 132.144C18.6375 131.579 18.3116 130.966 18.1479 130.306C17.9772 129.651 17.9584 129.002 18.0914 128.356C18.2184 127.704 18.4736 127.107 18.8571 126.566L19.8549 127.72C19.5301 128.272 19.3944 128.865 19.4475 129.497C19.4876 130.129 19.7334 130.706 20.185 131.228C20.5694 131.673 21.0399 131.982 21.5964 132.155C22.1458 132.334 22.727 132.35 23.3398 132.203C23.9457 132.061 24.5169 131.759 25.0536 131.295C25.5903 130.831 25.9759 130.307 26.2104 129.722C26.4379 129.143 26.5064 128.566 26.416 127.99C26.3186 127.42 26.0776 126.913 25.6931 126.468C25.2293 125.932 24.6879 125.598 24.0688 125.466C23.4427 125.341 22.8254 125.412 22.2171 125.679L21.2193 124.524C21.8244 124.211 22.4594 124.032 23.1244 123.988C23.7893 123.944 24.4366 124.051 25.0663 124.308C25.6961 124.566 26.2581 124.981 26.7524 125.553Z" fill="#67797E"/>
<path d="M20.9198 118.023L21.7272 119.251L18.7672 121.197L15.4981 127.617L14.6139 126.272L17.0092 121.632L16.8554 121.398L11.646 121.756L10.7694 120.422L17.9598 119.968L20.9198 118.023Z" fill="#67797E"/>
<path d="M10.9752 92.0752C11.1084 92.8384 11.0868 93.529 10.9105 94.1472C10.7342 94.7654 10.438 95.2671 10.0221 95.6524C9.6061 96.0376 9.11769 96.2792 8.55683 96.3771L8.3041 94.929C8.8006 94.8423 9.18364 94.567 9.45322 94.1031C9.7212 93.63 9.79181 93.0303 9.66504 92.3039C9.53667 91.5684 9.30328 91.0454 8.96487 90.7349C8.61726 90.4261 8.21819 90.311 7.76767 90.3896C7.01373 90.5212 6.63629 91.1271 6.63533 92.2074L6.61002 94.0167C6.59662 95.677 5.89114 96.6292 4.4936 96.8731C3.95113 96.9677 3.44436 96.9141 2.97328 96.7121C2.49301 96.5116 2.08841 96.1749 1.7595 95.7017C1.42139 95.2301 1.19136 94.645 1.0694 93.9462C0.937822 93.1923 0.957209 92.5162 1.12757 91.918C1.29632 91.3106 1.58948 90.8189 2.00704 90.4428C2.423 90.0576 2.9206 89.8144 3.49984 89.7133L3.75258 91.1614C3.43077 91.2176 3.1526 91.3609 2.91806 91.5913C2.68191 91.8125 2.51537 92.1069 2.41844 92.4743C2.31231 92.8434 2.29937 93.2578 2.3796 93.7175C2.48872 94.3427 2.71628 94.8052 3.06228 95.1048C3.40668 95.3953 3.79954 95.502 4.24087 95.4249C4.93964 95.303 5.29592 94.7387 5.30971 93.732L5.32078 92.1668C5.32698 91.1709 5.50844 90.4191 5.86516 89.9116C6.21107 89.3964 6.761 89.0731 7.51494 88.9415C8.0574 88.8468 8.56958 88.9043 9.05146 89.1139C9.52254 89.3159 9.93034 89.6711 10.2749 90.1794C10.6086 90.6802 10.8421 91.3121 10.9752 92.0752Z" fill="#67797E"/>
<path d="M9.87693 85.2908L10.0011 86.7556L0.236132 87.5834L0.111956 86.1187L9.87693 85.2908Z" fill="#67797E"/>
<path d="M9.81715 81.6724L9.79928 83.1423L0 83.0232L0.0262146 80.8673L7.73216 76.9707L7.73557 76.6908L0.078133 76.5976L0.0960066 75.1277L9.89528 75.2469L9.86907 77.4027L2.16312 81.2993L2.15972 81.5793L9.81715 81.6724Z" fill="#67797E"/>
<path d="M10.8696 68.9048C10.7364 69.7625 10.4025 70.5135 9.86791 71.1578C9.33479 71.7928 8.65786 72.2591 7.83713 72.5566C7.0164 72.8542 6.12646 72.9285 5.16729 72.7795C4.20813 72.6305 3.38265 72.2898 2.69085 71.7573C1.99905 71.2248 1.49546 70.5751 1.18009 69.8083C0.866153 69.0323 0.775798 68.2154 0.909026 67.3577C1.02363 66.6198 1.27967 65.9748 1.67713 65.4226C2.06538 64.869 2.54854 64.434 3.12661 64.1176C3.70612 63.7921 4.32623 63.6003 4.98695 63.5424L4.75273 65.0503C4.12174 65.1601 3.58239 65.4399 3.13469 65.8899C2.6792 66.3292 2.39845 66.8901 2.29244 67.5725C2.20219 68.1536 2.27127 68.7121 2.4997 69.2482C2.7189 69.7829 3.08298 70.2361 3.59193 70.608C4.09166 70.9784 4.69199 71.218 5.39292 71.3269C6.09385 71.4358 6.7432 71.3903 7.34097 71.1903C7.92952 70.9889 8.41394 70.6675 8.79421 70.2259C9.16527 69.783 9.39592 69.271 9.48617 68.6899C9.59505 67.989 9.4991 67.3602 9.19832 66.8034C8.88833 66.2452 8.4348 65.8206 7.83774 65.5295L8.07196 64.0216C8.70242 64.2801 9.2497 64.6484 9.71379 65.1267C10.1779 65.6049 10.5156 66.1674 10.7268 66.8141C10.938 67.4609 10.9856 68.1578 10.8696 68.9048Z" fill="#67797E"/>
<path d="M13.5813 56.8847L11.7786 63.0527L2.37211 60.3035L4.17479 54.1355L5.47826 54.5165L4.08796 59.2735L6.82928 60.0747L8.14103 55.5864L9.41763 55.9595L8.10587 60.4478L10.8875 61.2608L12.2778 56.5038L13.5813 56.8847Z" fill="#67797E"/>
<path d="M25.9621 34.973L25.04 34.1351L24.7281 28.4414C24.7036 28.0659 24.6461 27.7614 24.5556 27.5279C24.4645 27.2812 24.2946 27.0448 24.046 26.8189C23.6937 26.4987 23.2969 26.3525 22.8555 26.3803C22.4204 26.4011 22.0397 26.591 21.7133 26.9502C21.3932 27.3025 21.2545 27.7188 21.2973 28.1991C21.3332 28.6731 21.5514 29.0921 21.9521 29.4562L20.9634 30.5441C20.5007 30.1235 20.1741 29.6502 19.9838 29.1241C19.7997 28.5911 19.7641 28.0543 19.877 27.5138C19.9962 26.9663 20.2629 26.4646 20.6772 26.0087C21.0915 25.5528 21.5554 25.2366 22.0689 25.0601C22.5755 24.8773 23.0894 24.8461 23.6105 24.9665C24.131 25.0738 24.6088 25.3252 25.044 25.7206C25.4446 26.0847 25.7147 26.4814 25.8541 26.9108C25.993 27.327 26.0741 27.8484 26.0974 28.475L26.3252 32.4086L26.377 32.4557L29.2298 29.3163L30.2556 30.2484L25.9621 34.973Z" fill="#67797E"/>
<path d="M34.2005 26.9286C33.6574 27.3992 33.0317 27.6819 32.3236 27.7768C31.6225 27.8656 30.8904 27.7404 30.1273 27.4013C29.3651 27.049 28.6387 26.4743 27.9481 25.6772C27.2575 24.8801 26.7952 24.0828 26.5611 23.2853C26.328 22.4746 26.3053 21.7286 26.493 21.0473C26.6878 20.3599 27.0567 19.7809 27.5999 19.3103C28.143 18.8397 28.7652 18.56 29.4663 18.4712C30.1744 18.3764 30.9096 18.5051 31.6717 18.8574C32.4348 19.1965 33.1617 19.7646 33.8523 20.5617C34.5429 21.3588 35.0048 22.1627 35.2379 22.9733C35.4719 23.7709 35.4916 24.5133 35.2968 25.2007C35.1091 25.882 34.7437 26.458 34.2005 26.9286ZM33.2838 25.8705C33.6153 25.5832 33.83 25.2182 33.9279 24.7752C34.0267 24.3191 33.9835 23.8132 33.7983 23.2574C33.607 22.6945 33.2547 22.1168 32.7413 21.5243C32.2279 20.9318 31.7093 20.5043 31.1856 20.2418C30.6557 19.9723 30.161 19.8575 29.7016 19.8974C29.2432 19.9242 28.8482 20.0811 28.5166 20.3684C28.1851 20.6556 27.9699 21.0273 27.8711 21.4834C27.7733 21.9263 27.82 22.4292 28.0113 22.9921C28.1964 23.5479 28.5457 24.1221 29.0591 24.7146C29.5725 25.3071 30.0941 25.7381 30.624 26.0076C31.1478 26.2701 31.6389 26.388 32.0974 26.3612C32.5568 26.3213 32.9522 26.1577 33.2838 25.8705Z" fill="#67797E"/>
<path d="M41.5056 21.3843C40.9062 21.7809 40.2493 21.9805 39.5349 21.9832C38.8282 21.9808 38.1184 21.7621 37.4054 21.3274C36.6951 20.8796 36.049 20.216 35.467 19.3364C34.885 18.4569 34.5295 17.6066 34.4003 16.7855C34.2738 15.9516 34.3475 15.2089 34.6216 14.5575C34.9035 13.901 35.3441 13.3744 35.9434 12.9779C36.5428 12.5813 37.1958 12.3843 37.9025 12.3867C38.6169 12.384 39.3293 12.6065 40.0396 13.0542C40.7526 13.489 41.4 14.1462 41.982 15.0258C42.564 15.9053 42.9182 16.7621 43.0448 17.5961C43.1739 18.4171 43.0976 19.1559 42.8157 19.8124C42.5416 20.4638 42.1049 20.9878 41.5056 21.3843ZM40.7331 20.2168C41.0989 19.9747 41.3589 19.6404 41.5131 19.2138C41.67 18.7743 41.6925 18.267 41.5806 17.6919C41.4635 17.1091 41.1887 16.4907 40.7561 15.8369C40.3234 15.1831 39.8644 14.6922 39.3789 14.3644C38.8882 14.0287 38.4125 13.8511 37.9518 13.8313C37.4937 13.7987 37.0818 13.9034 36.7159 14.1454C36.3501 14.3875 36.0888 14.7283 35.9319 15.1678C35.7777 15.5944 35.7591 16.0991 35.8762 16.6819C35.9881 17.257 36.2603 17.8715 36.6929 18.5253C37.1255 19.1791 37.5872 19.6739 38.0779 20.0095C38.5634 20.3374 39.0352 20.5176 39.4932 20.5503C39.954 20.57 40.3672 20.4588 40.7331 20.2168Z" fill="#67797E"/>
<path d="M47.9438 17.397L46.5096 18.1286L45.7107 9.10636L41.5578 11.2248L40.9216 9.97764L46.5586 7.10221L47.1248 8.21215L47.9438 17.397Z" fill="#67797E"/>
<path d="M65.6497 6.00364C65.6497 7.38436 64.5304 8.50364 63.1497 8.50364C61.769 8.50364 60.6497 7.38436 60.6497 6.00364C60.6497 4.62293 61.769 3.50365 63.1497 3.50365C64.5304 3.50365 65.6497 4.62293 65.6497 6.00364Z" fill="#67797E"/>
<path d="M16.6497 42.0036C16.6497 43.3844 15.5304 44.5036 14.1497 44.5036C12.769 44.5036 11.6497 43.3844 11.6497 42.0036C11.6497 40.6229 12.769 39.5036 14.1497 39.5036C15.5304 39.5036 16.6497 40.6229 16.6497 42.0036Z" fill="#67797E"/>
<path d="M158.65 90.0036C158.65 91.3844 157.53 92.5036 156.15 92.5036C154.769 92.5036 153.65 91.3844 153.65 90.0036C153.65 88.6229 154.769 87.5036 156.15 87.5036C157.53 87.5036 158.65 88.6229 158.65 90.0036Z" fill="#67797E"/>
<path d="M74.6497 154.004C74.6497 155.384 73.5304 156.504 72.1497 156.504C70.769 156.504 69.6497 155.384 69.6497 154.004C69.6497 152.623 70.769 151.504 72.1497 151.504C73.5304 151.504 74.6497 152.623 74.6497 154.004Z" fill="#67797E"/>
<path d="M11.6497 108.004C11.6497 109.384 10.5304 110.504 9.14967 110.504C7.76896 110.504 6.64967 109.384 6.64967 108.004C6.64967 106.623 7.76896 105.504 9.14967 105.504C10.5304 105.504 11.6497 106.623 11.6497 108.004Z" fill="#67797E"/>
</svg>
